/* XPM */
static char *octave[] = {
/* columns rows colors chars-per-pixel */
"32 32 5 1",
"  c #044ADC",
". c #0459C2",
"X c #0CC4FC",
"o c #3ACAFC",
"O c #3EDBFC",
/* pixels */
"................................",
".                              .",
". XX.                       XX..",
". XX.        XXXXXXX.       XX..",
".          XOOXXXXXXXX.        .",
".        XXXXXXXXXXXXXX.       .",
".       XXXXX.     XXXXX.      .",
".      XXXXX.       XXXXX.     .",
".     XXXXX.         XXXXX.    .",
".     XXXX.           XXXX.    .",
".    XXXXX.           XXXXX.   .",
".    XXXX.   XX  XX.   XXXX.   .",
".    XXXX.  XX.   XX.  XXXX.   .",
".   XXXXX. XX.     XX  XXXXX.  .",
".   XXXX.  XX. XX  XX.  XXXX.  .",
".   XXXX.  XX. XX  XX.  XXXX.  .",
".   XXXX.  XX. XX  XX.  XXXX.  .",
".   XXXX.  XX. XX  XX.  XXXX.  .",
".   XXXXX.  XXXXXXXXX. XXXXX.  .",
".    XXXX.   XX. XX.   XXXX.   .",
".    XXXX.             XXXX.   .",
".    XXXXX.           oXXXX.   .",
".     XXXX.           XXXX.    .",
".     XXXXX.         XXXXX.    .",
".      XXXXX.       XXXXX.     .",
".       XXXXX.     XXXXX.      .",
".         XXXXXXXXXXXX.        .",
".           XXXXXXXX.          .",
". XX.                       XX..",
". XX.                       XX..",
".                              .",
"................................"
};
